<?xml version="1.0" encoding="UTF-8" standalone="no"?>
<!DOCTYPE svg PUBLIC "-//W3C//DTD SVG 1.1//EN"
 "http://www.w3.org/Graphics/SVG/1.1/DTD/svg11.dtd">
<!-- Generated by graphviz version 9.0.0 (0)
 -->
<!-- Pages: 1 -->
<svg width="278pt" height="203pt"
 viewBox="0.00 0.00 278.00 203.04" xmlns="http://www.w3.org/2000/svg" xmlns:xlink="http://www.w3.org/1999/xlink">
<g id="graph0" class="graph" transform="scale(1 1) rotate(0) translate(4 199.04)">
<polygon fill="white" stroke="none" points="-4,4 -4,-199.04 274,-199.04 274,4 -4,4"/>
<!-- or -->
<g id="node1" class="node">
<title>or</title>
<ellipse fill="none" stroke="black" cx="135" cy="-174.53" rx="27" ry="20.51"/>
<text text-anchor="middle" x="135" y="-171.73" font-family="Helvetica,Arial,sans-serif" font-size="14.00">or</text>
</g>
<!-- and1 -->
<g id="node2" class="node">
<title>and1</title>
<ellipse fill="none" stroke="black" cx="99" cy="-97.52" rx="27.22" ry="20.51"/>
<text text-anchor="middle" x="99" y="-94.72" font-family="Helvetica,Arial,sans-serif" font-size="14.00">and</text>
</g>
<!-- or&#45;&#45;and1 -->
<g id="edge1" class="edge">
<title>or&#45;&#45;and1</title>
<path fill="none" stroke="black" d="M126.1,-154.99C120.6,-143.53 113.57,-128.88 108.05,-117.37"/>
</g>
<!-- and2 -->
<g id="node5" class="node">
<title>and2</title>
<ellipse fill="none" stroke="black" cx="171" cy="-97.52" rx="27.22" ry="20.51"/>
<text text-anchor="middle" x="171" y="-94.72" font-family="Helvetica,Arial,sans-serif" font-size="14.00">and</text>
</g>
<!-- or&#45;&#45;and2 -->
<g id="edge4" class="edge">
<title>or&#45;&#45;and2</title>
<path fill="none" stroke="black" d="M143.9,-154.99C149.4,-143.53 156.43,-128.88 161.95,-117.37"/>
</g>
<!-- x -->
<g id="node3" class="node">
<title>x</title>
<ellipse fill="none" stroke="black" cx="27" cy="-20.51" rx="27" ry="20.51"/>
<text text-anchor="middle" x="27" y="-17.71" font-family="Helvetica,Arial,sans-serif" font-size="14.00">X</text>
</g>
<!-- and1&#45;&#45;x -->
<g id="edge2" class="edge">
<title>and1&#45;&#45;x</title>
<path fill="none" stroke="black" d="M83.38,-80.24C71.3,-67.66 54.66,-50.32 42.59,-37.75"/>
</g>
<!-- alpha -->
<g id="node4" class="node">
<title>alpha</title>
<ellipse fill="none" stroke="black" cx="99" cy="-20.51" rx="27" ry="20.51"/>
<text text-anchor="middle" x="99" y="-17.71" font-family="Helvetica,Arial,sans-serif" font-size="14.00">α</text>
</g>
<!-- and1&#45;&#45;alpha -->
<g id="edge3" class="edge">
<title>and1&#45;&#45;alpha</title>
<path fill="none" stroke="black" d="M99,-76.81C99,-65.87 99,-52.3 99,-41.34"/>
</g>
<!-- notx -->
<g id="node6" class="node">
<title>notx</title>
<ellipse fill="none" stroke="black" cx="171" cy="-20.51" rx="27" ry="20.51"/>
<text text-anchor="middle" x="171" y="-17.71" font-family="Helvetica,Arial,sans-serif" font-size="14.00">¬ X</text>
</g>
<!-- and2&#45;&#45;notx -->
<g id="edge5" class="edge">
<title>and2&#45;&#45;notx</title>
<path fill="none" stroke="black" d="M171,-76.81C171,-65.87 171,-52.3 171,-41.34"/>
</g>
<!-- beta -->
<g id="node7" class="node">
<title>beta</title>
<ellipse fill="none" stroke="black" cx="243" cy="-20.51" rx="27" ry="20.51"/>
<text text-anchor="middle" x="243" y="-17.71" font-family="Helvetica,Arial,sans-serif" font-size="14.00">β</text>
</g>
<!-- and2&#45;&#45;beta -->
<g id="edge6" class="edge">
<title>and2&#45;&#45;beta</title>
<path fill="none" stroke="black" d="M186.62,-80.24C198.7,-67.66 215.34,-50.32 227.41,-37.75"/>
</g>
</g>
</svg>
