<?xml version="1.0" encoding="UTF-8" standalone="no"?>
<!DOCTYPE svg PUBLIC "-//W3C//DTD SVG 1.1//EN"
 "http://www.w3.org/Graphics/SVG/1.1/DTD/svg11.dtd">
<!-- Generated by graphviz version 9.0.0 (0)
 -->
<!-- Pages: 1 -->
<svg width="422pt" height="203pt"
 viewBox="0.00 0.00 422.00 203.04" xmlns="http://www.w3.org/2000/svg" xmlns:xlink="http://www.w3.org/1999/xlink">
<g id="graph0" class="graph" transform="scale(1 1) rotate(0) translate(4 199.04)">
<polygon fill="white" stroke="none" points="-4,4 -4,-199.04 418,-199.04 418,4 -4,4"/>
<!-- and -->
<g id="node1" class="node">
<title>and</title>
<ellipse fill="none" stroke="black" cx="207" cy="-174.53" rx="27.22" ry="20.51"/>
<text text-anchor="middle" x="207" y="-171.73" font-family="Helvetica,Arial,sans-serif" font-size="14.00">and</text>
</g>
<!-- or1 -->
<g id="node2" class="node">
<title>or1</title>
<ellipse fill="none" stroke="black" cx="99" cy="-97.52" rx="27" ry="20.51"/>
<text text-anchor="middle" x="99" y="-94.72" font-family="Helvetica,Arial,sans-serif" font-size="14.00">or</text>
</g>
<!-- and&#45;&#45;or1 -->
<g id="edge1" class="edge">
<title>and&#45;&#45;or1</title>
<path fill="none" stroke="black" d="M187.44,-159.95C167.87,-146.35 137.93,-125.56 118.41,-112"/>
</g>
<!-- or2 -->
<g id="node6" class="node">
<title>or2</title>
<ellipse fill="none" stroke="black" cx="171" cy="-97.52" rx="27" ry="20.51"/>
<text text-anchor="middle" x="171" y="-94.72" font-family="Helvetica,Arial,sans-serif" font-size="14.00">or</text>
</g>
<!-- and&#45;&#45;or2 -->
<g id="edge5" class="edge">
<title>and&#45;&#45;or2</title>
<path fill="none" stroke="black" d="M198.1,-154.99C192.56,-143.45 185.46,-128.66 179.92,-117.11"/>
</g>
<!-- or3 -->
<g id="node8" class="node">
<title>or3</title>
<ellipse fill="none" stroke="black" cx="243" cy="-97.52" rx="27" ry="20.51"/>
<text text-anchor="middle" x="243" y="-94.72" font-family="Helvetica,Arial,sans-serif" font-size="14.00">or</text>
</g>
<!-- and&#45;&#45;or3 -->
<g id="edge9" class="edge">
<title>and&#45;&#45;or3</title>
<path fill="none" stroke="black" d="M215.9,-154.99C221.44,-143.45 228.54,-128.66 234.08,-117.11"/>
</g>
<!-- or4 -->
<g id="node10" class="node">
<title>or4</title>
<ellipse fill="none" stroke="black" cx="315" cy="-97.52" rx="27" ry="20.51"/>
<text text-anchor="middle" x="315" y="-94.72" font-family="Helvetica,Arial,sans-serif" font-size="14.00">or</text>
</g>
<!-- and&#45;&#45;or4 -->
<g id="edge13" class="edge">
<title>and&#45;&#45;or4</title>
<path fill="none" stroke="black" d="M226.56,-159.95C246.13,-146.35 276.07,-125.56 295.59,-112"/>
</g>
<!-- x -->
<g id="node3" class="node">
<title>x</title>
<ellipse fill="none" stroke="black" cx="27" cy="-20.51" rx="27" ry="20.51"/>
<text text-anchor="middle" x="27" y="-17.71" font-family="Helvetica,Arial,sans-serif" font-size="14.00">X</text>
</g>
<!-- or1&#45;&#45;x -->
<g id="edge2" class="edge">
<title>or1&#45;&#45;x</title>
<path fill="none" stroke="black" d="M83.38,-80.24C71.3,-67.66 54.66,-50.32 42.59,-37.75"/>
</g>
<!-- y -->
<g id="node4" class="node">
<title>y</title>
<ellipse fill="none" stroke="black" cx="99" cy="-20.51" rx="27" ry="20.51"/>
<text text-anchor="middle" x="99" y="-17.71" font-family="Helvetica,Arial,sans-serif" font-size="14.00">Y</text>
</g>
<!-- or1&#45;&#45;y -->
<g id="edge3" class="edge">
<title>or1&#45;&#45;y</title>
<path fill="none" stroke="black" d="M99,-76.81C99,-65.87 99,-52.3 99,-41.34"/>
</g>
<!-- z -->
<g id="node5" class="node">
<title>z</title>
<ellipse fill="none" stroke="black" cx="171" cy="-20.51" rx="27" ry="20.51"/>
<text text-anchor="middle" x="171" y="-17.71" font-family="Helvetica,Arial,sans-serif" font-size="14.00">Z</text>
</g>
<!-- or1&#45;&#45;z -->
<g id="edge4" class="edge">
<title>or1&#45;&#45;z</title>
<path fill="none" stroke="black" d="M114.62,-80.24C126.7,-67.66 143.34,-50.32 155.41,-37.75"/>
</g>
<!-- or2&#45;&#45;y -->
<g id="edge7" class="edge">
<title>or2&#45;&#45;y</title>
<path fill="none" stroke="black" d="M155.38,-80.24C143.3,-67.66 126.66,-50.32 114.59,-37.75"/>
</g>
<!-- or2&#45;&#45;z -->
<g id="edge8" class="edge">
<title>or2&#45;&#45;z</title>
<path fill="none" stroke="black" d="M171,-76.81C171,-65.87 171,-52.3 171,-41.34"/>
</g>
<!-- notx -->
<g id="node7" class="node">
<title>notx</title>
<ellipse fill="none" stroke="black" cx="243" cy="-20.51" rx="27" ry="20.51"/>
<text text-anchor="middle" x="243" y="-17.71" font-family="Helvetica,Arial,sans-serif" font-size="14.00">¬ X</text>
</g>
<!-- or2&#45;&#45;notx -->
<g id="edge6" class="edge">
<title>or2&#45;&#45;notx</title>
<path fill="none" stroke="black" d="M186.62,-80.24C198.7,-67.66 215.34,-50.32 227.41,-37.75"/>
</g>
<!-- or3&#45;&#45;z -->
<g id="edge12" class="edge">
<title>or3&#45;&#45;z</title>
<path fill="none" stroke="black" d="M227.38,-80.24C215.3,-67.66 198.66,-50.32 186.59,-37.75"/>
</g>
<!-- or3&#45;&#45;notx -->
<g id="edge10" class="edge">
<title>or3&#45;&#45;notx</title>
<path fill="none" stroke="black" d="M243,-76.81C243,-65.87 243,-52.3 243,-41.34"/>
</g>
<!-- noty -->
<g id="node9" class="node">
<title>noty</title>
<ellipse fill="none" stroke="black" cx="315" cy="-20.51" rx="27" ry="20.51"/>
<text text-anchor="middle" x="315" y="-17.71" font-family="Helvetica,Arial,sans-serif" font-size="14.00">¬ Y</text>
</g>
<!-- or3&#45;&#45;noty -->
<g id="edge11" class="edge">
<title>or3&#45;&#45;noty</title>
<path fill="none" stroke="black" d="M258.62,-80.24C270.7,-67.66 287.34,-50.32 299.41,-37.75"/>
</g>
<!-- or4&#45;&#45;notx -->
<g id="edge14" class="edge">
<title>or4&#45;&#45;notx</title>
<path fill="none" stroke="black" d="M299.38,-80.24C287.3,-67.66 270.66,-50.32 258.59,-37.75"/>
</g>
<!-- or4&#45;&#45;noty -->
<g id="edge15" class="edge">
<title>or4&#45;&#45;noty</title>
<path fill="none" stroke="black" d="M315,-76.81C315,-65.87 315,-52.3 315,-41.34"/>
</g>
<!-- notz -->
<g id="node11" class="node">
<title>notz</title>
<ellipse fill="none" stroke="black" cx="387" cy="-20.51" rx="27" ry="20.51"/>
<text text-anchor="middle" x="387" y="-17.71" font-family="Helvetica,Arial,sans-serif" font-size="14.00">¬ Z</text>
</g>
<!-- or4&#45;&#45;notz -->
<g id="edge16" class="edge">
<title>or4&#45;&#45;notz</title>
<path fill="none" stroke="black" d="M330.62,-80.24C342.7,-67.66 359.34,-50.32 371.41,-37.75"/>
</g>
</g>
</svg>
