<?xml version="1.0" encoding="UTF-8" standalone="no"?>
<!DOCTYPE svg PUBLIC "-//W3C//DTD SVG 1.1//EN"
 "http://www.w3.org/Graphics/SVG/1.1/DTD/svg11.dtd">
<!-- Generated by graphviz version 9.0.0 (0)
 -->
<!-- Pages: 1 -->
<svg width="336pt" height="365pt"
 viewBox="0.00 0.00 335.78 364.84" xmlns="http://www.w3.org/2000/svg" xmlns:xlink="http://www.w3.org/1999/xlink">
<g id="graph0" class="graph" transform="scale(1 1) rotate(0) translate(4 360.84)">
<polygon fill="white" stroke="none" points="-4,4 -4,-360.84 331.78,-360.84 331.78,4 -4,4"/>
<!-- or1 -->
<g id="node1" class="node">
<title>or1</title>
<ellipse fill="none" stroke="black" cx="172.89" cy="-336.33" rx="31.47" ry="20.51"/>
<text text-anchor="middle" x="172.89" y="-333.53" font-family="Helvetica,Arial,sans-serif" font-size="14.00">or(1)</text>
</g>
<!-- and2 -->
<g id="node2" class="node">
<title>and2</title>
<ellipse fill="none" stroke="black" cx="124.89" cy="-259.32" rx="38.89" ry="20.51"/>
<text text-anchor="middle" x="124.89" y="-256.52" font-family="Helvetica,Arial,sans-serif" font-size="14.00">and(2)</text>
</g>
<!-- or1&#45;&gt;and2 -->
<g id="edge1" class="edge">
<title>or1&#45;&gt;and2</title>
<path fill="none" stroke="black" d="M161.27,-317.17C155.79,-308.61 149.13,-298.2 143.01,-288.64"/>
<polygon fill="black" stroke="black" points="146.06,-286.91 137.72,-280.37 140.16,-290.68 146.06,-286.91"/>
</g>
<!-- and1 -->
<g id="node9" class="node">
<title>and1</title>
<ellipse fill="none" stroke="black" cx="220.89" cy="-259.32" rx="38.89" ry="20.51"/>
<text text-anchor="middle" x="220.89" y="-256.52" font-family="Helvetica,Arial,sans-serif" font-size="14.00">and(1)</text>
</g>
<!-- or1&#45;&gt;and1 -->
<g id="edge8" class="edge">
<title>or1&#45;&gt;and1</title>
<path fill="none" stroke="black" d="M184.51,-317.17C189.99,-308.61 196.65,-298.2 202.77,-288.64"/>
<polygon fill="black" stroke="black" points="205.62,-290.68 208.06,-280.37 199.72,-286.91 205.62,-290.68"/>
</g>
<!-- and3 -->
<g id="node3" class="node">
<title>and3</title>
<ellipse fill="none" stroke="black" cx="38.89" cy="-182.31" rx="38.89" ry="20.51"/>
<text text-anchor="middle" x="38.89" y="-179.51" font-family="Helvetica,Arial,sans-serif" font-size="14.00">and(3)</text>
</g>
<!-- and2&#45;&gt;and3 -->
<g id="edge2" class="edge">
<title>and2&#45;&gt;and3</title>
<path fill="none" stroke="black" d="M105.38,-241.3C93.94,-231.33 79.31,-218.56 66.68,-207.55"/>
<polygon fill="black" stroke="black" points="69.31,-205.19 59.47,-201.26 64.7,-210.47 69.31,-205.19"/>
</g>
<!-- and4 -->
<g id="node6" class="node">
<title>and4</title>
<ellipse fill="none" stroke="black" cx="134.89" cy="-182.31" rx="38.89" ry="20.51"/>
<text text-anchor="middle" x="134.89" y="-179.51" font-family="Helvetica,Arial,sans-serif" font-size="14.00">and(4)</text>
</g>
<!-- and2&#45;&gt;and4 -->
<g id="edge5" class="edge">
<title>and2&#45;&gt;and4</title>
<path fill="none" stroke="black" d="M127.52,-238.61C128.51,-231.18 129.66,-222.53 130.76,-214.31"/>
<polygon fill="black" stroke="black" points="134.19,-215.02 132.05,-204.65 127.26,-214.1 134.19,-215.02"/>
</g>
<!-- a -->
<g id="node4" class="node">
<title>a</title>
<ellipse fill="none" stroke="black" cx="37.89" cy="-103.35" rx="20.51" ry="20.51"/>
<text text-anchor="middle" x="37.89" y="-100.55" font-family="Helvetica,Arial,sans-serif" font-size="14.00">a</text>
</g>
<!-- and3&#45;&gt;a -->
<g id="edge3" class="edge">
<title>and3&#45;&gt;a</title>
<path fill="none" stroke="black" d="M38.63,-161.49C38.53,-153.59 38.41,-144.31 38.3,-135.55"/>
<polygon fill="black" stroke="black" points="41.8,-135.57 38.17,-125.62 34.8,-135.66 41.8,-135.57"/>
</g>
<!-- not_e -->
<g id="node5" class="node">
<title>not_e</title>
<ellipse fill="none" stroke="black" cx="160.89" cy="-22.45" rx="22.45" ry="22.45"/>
<text text-anchor="middle" x="160.89" y="-19.65" font-family="Helvetica,Arial,sans-serif" font-size="14.00">¬e</text>
</g>
<!-- and3&#45;&gt;not_e -->
<g id="edge4" class="edge">
<title>and3&#45;&gt;not_e</title>
<path fill="none" stroke="black" d="M50.07,-162.49C62.68,-141.79 84.26,-107.87 105.89,-80.9 115.48,-68.95 127.08,-56.57 137.16,-46.38"/>
<polygon fill="black" stroke="black" points="139.49,-48.99 144.11,-39.45 134.55,-44.03 139.49,-48.99"/>
</g>
<!-- not_c -->
<g id="node7" class="node">
<title>not_c</title>
<ellipse fill="none" stroke="black" cx="136.89" cy="-103.35" rx="21.92" ry="21.92"/>
<text text-anchor="middle" x="136.89" y="-100.55" font-family="Helvetica,Arial,sans-serif" font-size="14.00">¬c</text>
</g>
<!-- and4&#45;&gt;not_c -->
<g id="edge6" class="edge">
<title>and4&#45;&gt;not_c</title>
<path fill="none" stroke="black" d="M135.41,-161.49C135.6,-154.04 135.82,-145.37 136.04,-137.06"/>
<polygon fill="black" stroke="black" points="139.54,-137.32 136.3,-127.24 132.54,-137.14 139.54,-137.32"/>
</g>
<!-- not_d -->
<g id="node8" class="node">
<title>not_d</title>
<ellipse fill="none" stroke="black" cx="207.89" cy="-103.35" rx="22.45" ry="22.45"/>
<text text-anchor="middle" x="207.89" y="-100.55" font-family="Helvetica,Arial,sans-serif" font-size="14.00">¬d</text>
</g>
<!-- and4&#45;&gt;not_d -->
<g id="edge7" class="edge">
<title>and4&#45;&gt;not_d</title>
<path fill="none" stroke="black" d="M151.82,-163.46C161.69,-153.06 174.27,-139.8 185.01,-128.48"/>
<polygon fill="black" stroke="black" points="187.4,-131.04 191.75,-121.37 182.32,-126.22 187.4,-131.04"/>
</g>
<!-- b -->
<g id="node10" class="node">
<title>b</title>
<ellipse fill="none" stroke="black" cx="211.89" cy="-182.31" rx="20.51" ry="20.51"/>
<text text-anchor="middle" x="211.89" y="-179.51" font-family="Helvetica,Arial,sans-serif" font-size="14.00">b</text>
</g>
<!-- and1&#45;&gt;b -->
<g id="edge9" class="edge">
<title>and1&#45;&gt;b</title>
<path fill="none" stroke="black" d="M218.53,-238.61C217.63,-231.18 216.6,-222.53 215.61,-214.31"/>
<polygon fill="black" stroke="black" points="219.12,-214.16 214.45,-204.65 212.17,-214.99 219.12,-214.16"/>
</g>
<!-- and22 -->
<g id="node11" class="node">
<title>and22</title>
<ellipse fill="none" stroke="black" cx="288.89" cy="-182.31" rx="38.89" ry="20.51"/>
<text text-anchor="middle" x="288.89" y="-179.51" font-family="Helvetica,Arial,sans-serif" font-size="14.00">and(2)</text>
</g>
<!-- and1&#45;&gt;and22 -->
<g id="edge10" class="edge">
<title>and1&#45;&gt;and22</title>
<path fill="none" stroke="black" d="M237.01,-240.54C245.41,-231.27 255.86,-219.75 265.17,-209.47"/>
<polygon fill="black" stroke="black" points="267.52,-212.1 271.64,-202.34 262.33,-207.4 267.52,-212.1"/>
</g>
<!-- and22&#45;&gt;not_d -->
<g id="edge11" class="edge">
<title>and22&#45;&gt;not_d</title>
<path fill="none" stroke="black" d="M270.51,-163.85C259.13,-153.04 244.4,-139.04 232.08,-127.33"/>
<polygon fill="black" stroke="black" points="234.76,-125.06 225.1,-120.71 229.94,-130.13 234.76,-125.06"/>
</g>
<!-- or3 -->
<g id="node12" class="node">
<title>or3</title>
<ellipse fill="none" stroke="black" cx="283.89" cy="-103.35" rx="31.47" ry="20.51"/>
<text text-anchor="middle" x="283.89" y="-100.55" font-family="Helvetica,Arial,sans-serif" font-size="14.00">or(3)</text>
</g>
<!-- and22&#45;&gt;or3 -->
<g id="edge12" class="edge">
<title>and22&#45;&gt;or3</title>
<path fill="none" stroke="black" d="M287.6,-161.49C287.09,-153.59 286.49,-144.31 285.92,-135.55"/>
<polygon fill="black" stroke="black" points="289.41,-135.37 285.27,-125.61 282.43,-135.82 289.41,-135.37"/>
</g>
<!-- or3&#45;&gt;not_e -->
<g id="edge13" class="edge">
<title>or3&#45;&gt;not_e</title>
<path fill="none" stroke="black" d="M261.9,-88.25C241.53,-75.18 211.12,-55.67 188.99,-41.48"/>
<polygon fill="black" stroke="black" points="191.06,-38.64 180.75,-36.19 187.28,-44.54 191.06,-38.64"/>
</g>
<!-- not_a -->
<g id="node13" class="node">
<title>not_a</title>
<ellipse fill="none" stroke="black" cx="283.89" cy="-22.45" rx="22.45" ry="22.45"/>
<text text-anchor="middle" x="283.89" y="-19.65" font-family="Helvetica,Arial,sans-serif" font-size="14.00">¬a</text>
</g>
<!-- or3&#45;&gt;not_a -->
<g id="edge14" class="edge">
<title>or3&#45;&gt;not_a</title>
<path fill="none" stroke="black" d="M283.89,-82.44C283.89,-74.66 283.89,-65.52 283.89,-56.79"/>
<polygon fill="black" stroke="black" points="287.39,-56.81 283.89,-46.81 280.39,-56.81 287.39,-56.81"/>
</g>
</g>
</svg>
