<?xml version="1.0" encoding="UTF-8" standalone="no"?>
<!DOCTYPE svg PUBLIC "-//W3C//DTD SVG 1.1//EN"
 "http://www.w3.org/Graphics/SVG/1.1/DTD/svg11.dtd">
<!-- Generated by graphviz version 9.0.0 (0)
 -->
<!-- Pages: 1 -->
<svg width="596pt" height="362pt"
 viewBox="0.00 0.00 596.15 361.80" xmlns="http://www.w3.org/2000/svg" xmlns:xlink="http://www.w3.org/1999/xlink">
<g id="graph0" class="graph" transform="scale(1 1) rotate(0) translate(4 357.8)">
<polygon fill="white" stroke="none" points="-4,4 -4,-357.8 592.15,-357.8 592.15,4 -4,4"/>
<!-- or1 -->
<g id="node1" class="node">
<title>or1</title>
<ellipse fill="none" stroke="black" cx="289.51" cy="-334.68" rx="19.12" ry="19.12"/>
<text text-anchor="middle" x="289.51" y="-330.01" font-family="Helvetica,Arial,sans-serif" font-size="14.00">⋁</text>
</g>
<!-- and1 -->
<g id="node2" class="node">
<title>and1</title>
<ellipse fill="none" stroke="black" cx="203.51" cy="-260.45" rx="19.12" ry="19.12"/>
<text text-anchor="middle" x="203.51" y="-255.78" font-family="Helvetica,Arial,sans-serif" font-size="14.00">⋀</text>
</g>
<!-- or1&#45;&gt;and1 -->
<g id="edge1" class="edge">
<title>or1&#45;&gt;and1</title>
<path fill="none" stroke="black" d="M275.3,-321.76C262.06,-310.63 242.08,-293.85 226.56,-280.81"/>
<polygon fill="black" stroke="black" points="229.08,-278.36 219.17,-274.61 224.58,-283.72 229.08,-278.36"/>
</g>
<!-- and4 -->
<g id="node11" class="node">
<title>and4</title>
<ellipse fill="none" stroke="black" cx="289.51" cy="-260.45" rx="19.12" ry="19.12"/>
<text text-anchor="middle" x="289.51" y="-255.78" font-family="Helvetica,Arial,sans-serif" font-size="14.00">⋀</text>
</g>
<!-- or1&#45;&gt;and4 -->
<g id="edge10" class="edge">
<title>or1&#45;&gt;and4</title>
<path fill="none" stroke="black" d="M289.51,-315.08C289.51,-307.78 289.51,-299.22 289.51,-291.1"/>
<polygon fill="black" stroke="black" points="293.01,-291.25 289.51,-281.25 286.01,-291.25 293.01,-291.25"/>
</g>
<!-- and6 -->
<g id="node17" class="node">
<title>and6</title>
<ellipse fill="none" stroke="black" cx="381.51" cy="-260.45" rx="19.12" ry="19.12"/>
<text text-anchor="middle" x="381.51" y="-255.78" font-family="Helvetica,Arial,sans-serif" font-size="14.00">⋀</text>
</g>
<!-- or1&#45;&gt;and6 -->
<g id="edge17" class="edge">
<title>or1&#45;&gt;and6</title>
<path fill="none" stroke="black" d="M304.29,-322.08C318.77,-310.7 341.08,-293.19 358,-279.91"/>
<polygon fill="black" stroke="black" points="359.87,-282.89 365.57,-273.96 355.54,-277.39 359.87,-282.89"/>
</g>
<!-- or2 -->
<g id="node3" class="node">
<title>or2</title>
<ellipse fill="none" stroke="black" cx="146.51" cy="-181.83" rx="19.12" ry="19.12"/>
<text text-anchor="middle" x="146.51" y="-177.15" font-family="Helvetica,Arial,sans-serif" font-size="14.00">⋁</text>
</g>
<!-- and1&#45;&gt;or2 -->
<g id="edge2" class="edge">
<title>and1&#45;&gt;or2</title>
<path fill="none" stroke="black" d="M192.52,-244.68C184.52,-233.93 173.53,-219.16 164.3,-206.74"/>
<polygon fill="black" stroke="black" points="167.34,-204.96 158.56,-199.03 161.72,-209.14 167.34,-204.96"/>
</g>
<!-- top1 -->
<g id="node10" class="node">
<title>top1</title>
<ellipse fill="none" stroke="black" cx="203.51" cy="-181.83" rx="19.64" ry="19.64"/>
<text text-anchor="middle" x="203.51" y="-177.15" font-family="Helvetica,Arial,sans-serif" font-size="14.00">⊤</text>
</g>
<!-- and1&#45;&gt;top1 -->
<g id="edge9" class="edge">
<title>and1&#45;&gt;top1</title>
<path fill="none" stroke="black" d="M203.51,-240.9C203.51,-232.56 203.51,-222.49 203.51,-213.09"/>
<polygon fill="black" stroke="black" points="207.01,-213.25 203.51,-203.25 200.01,-213.25 207.01,-213.25"/>
</g>
<!-- and2 -->
<g id="node4" class="node">
<title>and2</title>
<ellipse fill="none" stroke="black" cx="79.51" cy="-103.2" rx="19.12" ry="19.12"/>
<text text-anchor="middle" x="79.51" y="-98.52" font-family="Helvetica,Arial,sans-serif" font-size="14.00">⋀</text>
</g>
<!-- or2&#45;&gt;and2 -->
<g id="edge3" class="edge">
<title>or2&#45;&gt;and2</title>
<path fill="none" stroke="black" d="M134.22,-166.77C124.39,-155.54 110.44,-139.58 99.08,-126.59"/>
<polygon fill="black" stroke="black" points="101.93,-124.53 92.71,-119.3 96.66,-129.14 101.93,-124.53"/>
</g>
<!-- and3 -->
<g id="node7" class="node">
<title>and3</title>
<ellipse fill="none" stroke="black" cx="174.51" cy="-103.2" rx="19.12" ry="19.12"/>
<text text-anchor="middle" x="174.51" y="-98.52" font-family="Helvetica,Arial,sans-serif" font-size="14.00">⋀</text>
</g>
<!-- or2&#45;&gt;and3 -->
<g id="edge6" class="edge">
<title>or2&#45;&gt;and3</title>
<path fill="none" stroke="black" d="M152.86,-163.44C156.22,-154.23 160.44,-142.69 164.25,-132.25"/>
<polygon fill="black" stroke="black" points="167.51,-133.53 167.66,-122.94 160.94,-131.13 167.51,-133.53"/>
</g>
<!-- b -->
<g id="node5" class="node">
<title>b</title>
<ellipse fill="none" stroke="black" cx="20.51" cy="-24.04" rx="20.51" ry="20.51"/>
<text text-anchor="middle" x="20.51" y="-21.24" font-family="Helvetica,Arial,sans-serif" font-size="14.00">B</text>
</g>
<!-- and2&#45;&gt;b -->
<g id="edge4" class="edge">
<title>and2&#45;&gt;b</title>
<path fill="none" stroke="black" d="M68.13,-87.32C60.02,-76.71 48.92,-62.2 39.48,-49.85"/>
<polygon fill="black" stroke="black" points="42.43,-47.96 33.58,-42.14 36.87,-52.21 42.43,-47.96"/>
</g>
<!-- a -->
<g id="node6" class="node">
<title>a</title>
<ellipse fill="none" stroke="black" cx="79.51" cy="-24.04" rx="20.51" ry="20.51"/>
<text text-anchor="middle" x="79.51" y="-21.24" font-family="Helvetica,Arial,sans-serif" font-size="14.00">A</text>
</g>
<!-- and2&#45;&gt;a -->
<g id="edge5" class="edge">
<title>and2&#45;&gt;a</title>
<path fill="none" stroke="black" d="M79.51,-83.91C79.51,-75.64 79.51,-65.63 79.51,-56.23"/>
<polygon fill="black" stroke="black" points="83.01,-56.33 79.51,-46.33 76.01,-56.33 83.01,-56.33"/>
</g>
<!-- not_b -->
<g id="node8" class="node">
<title>not_b</title>
<ellipse fill="none" stroke="black" cx="141.51" cy="-24.04" rx="23.51" ry="23.51"/>
<text text-anchor="middle" x="141.51" y="-21.24" font-family="Helvetica,Arial,sans-serif" font-size="14.00">¬B</text>
</g>
<!-- and3&#45;&gt;not_b -->
<g id="edge7" class="edge">
<title>and3&#45;&gt;not_b</title>
<path fill="none" stroke="black" d="M167.18,-85.07C163.62,-76.75 159.23,-66.48 155.09,-56.79"/>
<polygon fill="black" stroke="black" points="158.32,-55.46 151.17,-47.64 151.89,-58.21 158.32,-55.46"/>
</g>
<!-- bot1 -->
<g id="node9" class="node">
<title>bot1</title>
<ellipse fill="none" stroke="black" cx="202.51" cy="-24.04" rx="19.64" ry="19.64"/>
<text text-anchor="middle" x="202.51" y="-19.37" font-family="Helvetica,Arial,sans-serif" font-size="14.00">⊥</text>
</g>
<!-- and3&#45;&gt;bot1 -->
<g id="edge8" class="edge">
<title>and3&#45;&gt;bot1</title>
<path fill="none" stroke="black" d="M180.86,-84.69C184.18,-75.55 188.32,-64.13 192.09,-53.73"/>
<polygon fill="black" stroke="black" points="195.35,-55.03 195.47,-44.44 188.77,-52.64 195.35,-55.03"/>
</g>
<!-- or3 -->
<g id="node12" class="node">
<title>or3</title>
<ellipse fill="none" stroke="black" cx="260.51" cy="-181.83" rx="19.12" ry="19.12"/>
<text text-anchor="middle" x="260.51" y="-177.15" font-family="Helvetica,Arial,sans-serif" font-size="14.00">⋁</text>
</g>
<!-- and4&#45;&gt;or3 -->
<g id="edge11" class="edge">
<title>and4&#45;&gt;or3</title>
<path fill="none" stroke="black" d="M282.93,-242.06C279.44,-232.85 275.07,-221.32 271.12,-210.88"/>
<polygon fill="black" stroke="black" points="274.41,-209.67 267.6,-201.56 267.86,-212.15 274.41,-209.67"/>
</g>
<!-- c -->
<g id="node16" class="node">
<title>c</title>
<ellipse fill="none" stroke="black" cx="318.51" cy="-181.83" rx="20.51" ry="20.51"/>
<text text-anchor="middle" x="318.51" y="-179.03" font-family="Helvetica,Arial,sans-serif" font-size="14.00">C</text>
</g>
<!-- and4&#45;&gt;c -->
<g id="edge16" class="edge">
<title>and4&#45;&gt;c</title>
<path fill="none" stroke="black" d="M296.09,-242.06C299.45,-233.18 303.63,-222.13 307.47,-211.99"/>
<polygon fill="black" stroke="black" points="310.64,-213.49 310.91,-202.9 304.1,-211.01 310.64,-213.49"/>
</g>
<!-- or3&#45;&gt;and3 -->
<g id="edge12" class="edge">
<title>or3&#45;&gt;and3</title>
<path fill="none" stroke="black" d="M246.69,-168.51C233.23,-156.52 212.54,-138.09 196.76,-124.03"/>
<polygon fill="black" stroke="black" points="199.5,-121.78 189.7,-117.74 194.84,-127.01 199.5,-121.78"/>
</g>
<!-- and5 -->
<g id="node13" class="node">
<title>and5</title>
<ellipse fill="none" stroke="black" cx="260.51" cy="-103.2" rx="19.12" ry="19.12"/>
<text text-anchor="middle" x="260.51" y="-98.52" font-family="Helvetica,Arial,sans-serif" font-size="14.00">⋀</text>
</g>
<!-- or3&#45;&gt;and5 -->
<g id="edge13" class="edge">
<title>or3&#45;&gt;and5</title>
<path fill="none" stroke="black" d="M260.51,-162.28C260.51,-153.81 260.51,-143.56 260.51,-134.05"/>
<polygon fill="black" stroke="black" points="264.01,-134.09 260.51,-124.09 257.01,-134.09 264.01,-134.09"/>
</g>
<!-- b2 -->
<g id="node14" class="node">
<title>b2</title>
<ellipse fill="none" stroke="black" cx="260.51" cy="-24.04" rx="20.51" ry="20.51"/>
<text text-anchor="middle" x="260.51" y="-21.24" font-family="Helvetica,Arial,sans-serif" font-size="14.00">B</text>
</g>
<!-- and5&#45;&gt;b2 -->
<g id="edge14" class="edge">
<title>and5&#45;&gt;b2</title>
<path fill="none" stroke="black" d="M260.51,-83.91C260.51,-75.64 260.51,-65.63 260.51,-56.23"/>
<polygon fill="black" stroke="black" points="264.01,-56.33 260.51,-46.33 257.01,-56.33 264.01,-56.33"/>
</g>
<!-- not_a -->
<g id="node15" class="node">
<title>not_a</title>
<ellipse fill="none" stroke="black" cx="322.51" cy="-24.04" rx="23.51" ry="23.51"/>
<text text-anchor="middle" x="322.51" y="-21.24" font-family="Helvetica,Arial,sans-serif" font-size="14.00">¬A</text>
</g>
<!-- and5&#45;&gt;not_a -->
<g id="edge15" class="edge">
<title>and5&#45;&gt;not_a</title>
<path fill="none" stroke="black" d="M272.17,-87.69C280.27,-77.6 291.32,-63.85 301,-51.81"/>
<polygon fill="black" stroke="black" points="303.58,-54.19 307.11,-44.2 298.12,-49.8 303.58,-54.19"/>
</g>
<!-- not_b2 -->
<g id="node18" class="node">
<title>not_b2</title>
<ellipse fill="none" stroke="black" cx="381.51" cy="-181.83" rx="23.51" ry="23.51"/>
<text text-anchor="middle" x="381.51" y="-179.03" font-family="Helvetica,Arial,sans-serif" font-size="14.00">¬B</text>
</g>
<!-- and6&#45;&gt;not_b2 -->
<g id="edge18" class="edge">
<title>and6&#45;&gt;not_b2</title>
<path fill="none" stroke="black" d="M381.51,-240.9C381.51,-233.68 381.51,-225.16 381.51,-216.91"/>
<polygon fill="black" stroke="black" points="385.01,-217.1 381.51,-207.1 378.01,-217.1 385.01,-217.1"/>
</g>
<!-- or4 -->
<g id="node19" class="node">
<title>or4</title>
<ellipse fill="none" stroke="black" cx="442.51" cy="-181.83" rx="19.12" ry="19.12"/>
<text text-anchor="middle" x="442.51" y="-177.15" font-family="Helvetica,Arial,sans-serif" font-size="14.00">⋁</text>
</g>
<!-- and6&#45;&gt;or4 -->
<g id="edge19" class="edge">
<title>and6&#45;&gt;or4</title>
<path fill="none" stroke="black" d="M392.98,-245.04C401.7,-234.08 413.88,-218.79 423.97,-206.11"/>
<polygon fill="black" stroke="black" points="426.44,-208.62 429.93,-198.62 420.97,-204.26 426.44,-208.62"/>
</g>
<!-- and7 -->
<g id="node20" class="node">
<title>and7</title>
<ellipse fill="none" stroke="black" cx="442.51" cy="-103.2" rx="19.12" ry="19.12"/>
<text text-anchor="middle" x="442.51" y="-98.52" font-family="Helvetica,Arial,sans-serif" font-size="14.00">⋀</text>
</g>
<!-- or4&#45;&gt;and7 -->
<g id="edge20" class="edge">
<title>or4&#45;&gt;and7</title>
<path fill="none" stroke="black" d="M442.51,-162.28C442.51,-153.81 442.51,-143.56 442.51,-134.05"/>
<polygon fill="black" stroke="black" points="446.01,-134.09 442.51,-124.09 439.01,-134.09 446.01,-134.09"/>
</g>
<!-- and8 -->
<g id="node23" class="node">
<title>and8</title>
<ellipse fill="none" stroke="black" cx="506.51" cy="-103.2" rx="19.12" ry="19.12"/>
<text text-anchor="middle" x="506.51" y="-98.52" font-family="Helvetica,Arial,sans-serif" font-size="14.00">⋀</text>
</g>
<!-- or4&#45;&gt;and8 -->
<g id="edge23" class="edge">
<title>or4&#45;&gt;and8</title>
<path fill="none" stroke="black" d="M454.54,-166.41C463.75,-155.39 476.63,-139.97 487.26,-127.24"/>
<polygon fill="black" stroke="black" points="489.83,-129.63 493.55,-119.71 484.46,-125.14 489.83,-129.63"/>
</g>
<!-- d -->
<g id="node21" class="node">
<title>d</title>
<ellipse fill="none" stroke="black" cx="384.51" cy="-24.04" rx="20.51" ry="20.51"/>
<text text-anchor="middle" x="384.51" y="-21.24" font-family="Helvetica,Arial,sans-serif" font-size="14.00">D</text>
</g>
<!-- and7&#45;&gt;d -->
<g id="edge21" class="edge">
<title>and7&#45;&gt;d</title>
<path fill="none" stroke="black" d="M431.32,-87.32C423.35,-76.71 412.44,-62.2 403.16,-49.85"/>
<polygon fill="black" stroke="black" points="406.17,-48.04 397.36,-42.14 400.57,-52.24 406.17,-48.04"/>
</g>
<!-- c2 -->
<g id="node22" class="node">
<title>c2</title>
<ellipse fill="none" stroke="black" cx="443.51" cy="-24.04" rx="20.51" ry="20.51"/>
<text text-anchor="middle" x="443.51" y="-21.24" font-family="Helvetica,Arial,sans-serif" font-size="14.00">C</text>
</g>
<!-- and7&#45;&gt;c2 -->
<g id="edge22" class="edge">
<title>and7&#45;&gt;c2</title>
<path fill="none" stroke="black" d="M442.74,-83.91C442.85,-75.64 442.98,-65.63 443.1,-56.23"/>
<polygon fill="black" stroke="black" points="446.6,-56.38 443.23,-46.33 439.6,-56.28 446.6,-56.38"/>
</g>
<!-- not_d -->
<g id="node24" class="node">
<title>not_d</title>
<ellipse fill="none" stroke="black" cx="506.51" cy="-24.04" rx="24.04" ry="24.04"/>
<text text-anchor="middle" x="506.51" y="-21.24" font-family="Helvetica,Arial,sans-serif" font-size="14.00">¬D</text>
</g>
<!-- and8&#45;&gt;not_d -->
<g id="edge24" class="edge">
<title>and8&#45;&gt;not_d</title>
<path fill="none" stroke="black" d="M506.51,-83.91C506.51,-76.7 506.51,-68.17 506.51,-59.88"/>
<polygon fill="black" stroke="black" points="510.01,-59.98 506.51,-49.98 503.01,-59.98 510.01,-59.98"/>
</g>
<!-- bot2 -->
<g id="node25" class="node">
<title>bot2</title>
<ellipse fill="none" stroke="black" cx="568.51" cy="-24.04" rx="19.64" ry="19.64"/>
<text text-anchor="middle" x="568.51" y="-19.37" font-family="Helvetica,Arial,sans-serif" font-size="14.00">⊥</text>
</g>
<!-- and8&#45;&gt;bot2 -->
<g id="edge25" class="edge">
<title>and8&#45;&gt;bot2</title>
<path fill="none" stroke="black" d="M518.17,-87.69C526.97,-76.73 539.25,-61.45 549.47,-48.73"/>
<polygon fill="black" stroke="black" points="551.99,-51.18 555.53,-41.2 546.53,-46.8 551.99,-51.18"/>
</g>
</g>
</svg>
