<?xml version="1.0" encoding="UTF-8" standalone="no"?>
<!DOCTYPE svg PUBLIC "-//W3C//DTD SVG 1.1//EN"
 "http://www.w3.org/Graphics/SVG/1.1/DTD/svg11.dtd">
<!-- Generated by graphviz version 9.0.0 (0)
 -->
<!-- Pages: 1 -->
<svg width="226pt" height="280pt"
 viewBox="0.00 0.00 226.01 280.05" xmlns="http://www.w3.org/2000/svg" xmlns:xlink="http://www.w3.org/1999/xlink">
<g id="graph0" class="graph" transform="scale(1 1) rotate(0) translate(4 276.05)">
<polygon fill="white" stroke="none" points="-4,4 -4,-276.05 222.01,-276.05 222.01,4 -4,4"/>
<!-- one -->
<g id="node1" class="node">
<title>one</title>
<ellipse fill="none" stroke="black" cx="79.51" cy="-251.54" rx="20.51" ry="20.51"/>
<text text-anchor="middle" x="79.51" y="-248.74" font-family="Helvetica,Arial,sans-serif" font-size="14.00">1</text>
</g>
<!-- b -->
<g id="node2" class="node">
<title>b</title>
<ellipse fill="none" stroke="black" cx="50.51" cy="-174.53" rx="20.51" ry="20.51"/>
<text text-anchor="middle" x="50.51" y="-171.73" font-family="Helvetica,Arial,sans-serif" font-size="14.00">b</text>
</g>
<!-- one&#45;&gt;b -->
<g id="edge1" class="edge">
<title>one&#45;&gt;b</title>
<path fill="none" stroke="black" d="M72.34,-232C69.17,-223.8 65.36,-213.95 61.82,-204.79"/>
<polygon fill="black" stroke="black" points="65.11,-203.6 58.24,-195.53 58.58,-206.12 65.11,-203.6"/>
</g>
<!-- two -->
<g id="node3" class="node">
<title>two</title>
<ellipse fill="none" stroke="black" cx="109.51" cy="-174.53" rx="20.51" ry="20.51"/>
<text text-anchor="middle" x="109.51" y="-171.73" font-family="Helvetica,Arial,sans-serif" font-size="14.00">2</text>
</g>
<!-- one&#45;&gt;two -->
<g id="edge2" class="edge">
<title>one&#45;&gt;two</title>
<path fill="none" stroke="black" d="M86.92,-232C90.2,-223.8 94.14,-213.95 97.8,-204.79"/>
<polygon fill="black" stroke="black" points="101.05,-206.11 101.51,-195.52 94.55,-203.51 101.05,-206.11"/>
</g>
<!-- three -->
<g id="node4" class="node">
<title>three</title>
<ellipse fill="none" stroke="black" cx="79.51" cy="-97.52" rx="20.51" ry="20.51"/>
<text text-anchor="middle" x="79.51" y="-94.72" font-family="Helvetica,Arial,sans-serif" font-size="14.00">3</text>
</g>
<!-- two&#45;&gt;three -->
<g id="edge3" class="edge">
<title>two&#45;&gt;three</title>
<path fill="none" stroke="black" d="M102.09,-154.99C98.81,-146.78 94.87,-136.94 91.21,-127.78"/>
<polygon fill="black" stroke="black" points="94.47,-126.5 87.5,-118.51 87.97,-129.1 94.47,-126.5"/>
</g>
<!-- four -->
<g id="node7" class="node">
<title>four</title>
<ellipse fill="none" stroke="black" cx="138.51" cy="-97.52" rx="20.51" ry="20.51"/>
<text text-anchor="middle" x="138.51" y="-94.72" font-family="Helvetica,Arial,sans-serif" font-size="14.00">4</text>
</g>
<!-- two&#45;&gt;four -->
<g id="edge6" class="edge">
<title>two&#45;&gt;four</title>
<path fill="none" stroke="black" d="M116.67,-154.99C119.85,-146.78 123.65,-136.94 127.19,-127.78"/>
<polygon fill="black" stroke="black" points="130.43,-129.11 130.77,-118.52 123.9,-126.58 130.43,-129.11"/>
</g>
<!-- a -->
<g id="node5" class="node">
<title>a</title>
<ellipse fill="none" stroke="black" cx="20.51" cy="-20.51" rx="20.51" ry="20.51"/>
<text text-anchor="middle" x="20.51" y="-17.71" font-family="Helvetica,Arial,sans-serif" font-size="14.00">a</text>
</g>
<!-- three&#45;&gt;a -->
<g id="edge4" class="edge">
<title>three&#45;&gt;a</title>
<path fill="none" stroke="black" d="M67.28,-80.98C59.34,-70.89 48.83,-57.52 39.78,-46.02"/>
<polygon fill="black" stroke="black" points="42.79,-44.17 33.85,-38.48 37.29,-48.5 42.79,-44.17"/>
</g>
<!-- e -->
<g id="node6" class="node">
<title>e</title>
<ellipse fill="none" stroke="black" cx="79.51" cy="-20.51" rx="20.51" ry="20.51"/>
<text text-anchor="middle" x="79.51" y="-17.71" font-family="Helvetica,Arial,sans-serif" font-size="14.00">e</text>
</g>
<!-- three&#45;&gt;e -->
<g id="edge5" class="edge">
<title>three&#45;&gt;e</title>
<path fill="none" stroke="black" d="M79.51,-76.81C79.51,-69.46 79.51,-60.92 79.51,-52.79"/>
<polygon fill="black" stroke="black" points="83.01,-52.86 79.51,-42.86 76.01,-52.86 83.01,-52.86"/>
</g>
<!-- c -->
<g id="node8" class="node">
<title>c</title>
<ellipse fill="none" stroke="black" cx="138.51" cy="-20.51" rx="20.51" ry="20.51"/>
<text text-anchor="middle" x="138.51" y="-17.71" font-family="Helvetica,Arial,sans-serif" font-size="14.00">c</text>
</g>
<!-- four&#45;&gt;c -->
<g id="edge7" class="edge">
<title>four&#45;&gt;c</title>
<path fill="none" stroke="black" d="M138.51,-76.81C138.51,-69.46 138.51,-60.92 138.51,-52.79"/>
<polygon fill="black" stroke="black" points="142.01,-52.86 138.51,-42.86 135.01,-52.86 142.01,-52.86"/>
</g>
<!-- d -->
<g id="node9" class="node">
<title>d</title>
<ellipse fill="none" stroke="black" cx="197.51" cy="-20.51" rx="20.51" ry="20.51"/>
<text text-anchor="middle" x="197.51" y="-17.71" font-family="Helvetica,Arial,sans-serif" font-size="14.00">d</text>
</g>
<!-- four&#45;&gt;d -->
<g id="edge8" class="edge">
<title>four&#45;&gt;d</title>
<path fill="none" stroke="black" d="M150.73,-80.98C158.67,-70.89 169.18,-57.52 178.23,-46.02"/>
<polygon fill="black" stroke="black" points="180.73,-48.5 184.16,-38.48 175.22,-44.17 180.73,-48.5"/>
</g>
</g>
</svg>
